<svg width="19" height="15" fill="none" xmlns="http://www.w3.org/2000/svg"><path opacity=".3" d="M18.398 1.985a7.67 7.67 0 01-2.124.556A3.581 3.581 0 0017.9.586a7.617 7.617 0 01-2.348.857 3.771 3.771 0 00-2.7-1.116c-2.04 0-3.697 1.582-3.697 3.534 0 .277.032.547.096.806C6.176 4.519 3.452 3.113 1.628.974a3.395 3.395 0 00-.5 1.777c0 1.226.652 2.307 1.644 2.941a3.805 3.805 0 01-1.675-.442v.045c0 1.712 1.275 3.14 2.966 3.466a3.887 3.887 0 01-1.67.06c.47 1.404 1.837 2.426 3.455 2.455a7.65 7.65 0 01-4.593 1.513c-.295 0-.59-.017-.882-.05a10.826 10.826 0 005.669 1.588c6.802 0 10.52-5.386 10.52-10.056 0-.153 0-.306-.01-.457a7.37 7.37 0 001.845-1.83h.001z" fill="#fff"/></svg>