<svg width="31" height="31" fill="none" xmlns="http://www.w3.org/2000/svg"><path d="M10.551 3.158a22.246 22.246 0 014.56 2.444c.164.112.351.17.54.17a.964.964 0 00.539-.17 22.27 22.27 0 014.56-2.45.935.935 0 00.592-.879.925.925 0 00-.605-.867C17.57.205 13.732.205 10.57 1.406a.944.944 0 00-.018 1.752z" fill="#FFB548"/><path d="M24.159 3.164a.94.94 0 00-1.004-.041 40.987 40.987 0 00-5.052 3.434.942.942 0 00-.064 1.412c3.32 3.16 7.921 12.847 8.977 17.3-2.288-3.867-7.393-12.969-10.731-16.08a.942.942 0 00-1.28 0C11.661 12.3 6.574 21.406 4.285 25.28c1.057-4.453 5.645-14.152 8.966-17.31a.933.933 0 00-.059-1.412A41.445 41.445 0 008.14 3.123a.941.941 0 00-1.003.04A14.992 14.992 0 00.624 15.507a14.85 14.85 0 003.661 9.775 14.897 14.897 0 0011.36 5.228c4.395 0 8.537-1.905 11.371-5.233a14.849 14.849 0 003.65-9.77 15 15 0 00-6.507-12.342z" fill="#FFB548"/></svg>